<?xml version="1.0" standalone="no"?>
<!DOCTYPE svg PUBLIC "-//W3C//DTD SVG 20010904//EN"
 "http://www.w3.org/TR/2001/REC-SVG-20010904/DTD/svg10.dtd">
<svg version="1.0" xmlns="http://www.w3.org/2000/svg"
 width="1024.000000pt" height="1024.000000pt" viewBox="0 0 1024.000000 1024.000000"
 preserveAspectRatio="xMidYMid meet">

<g transform="translate(0.000000,1024.000000) scale(0.100000,-0.100000)"
fill="#000000" stroke="none">
<path d="M3607 8688 c-32 -25 -49 -89 -54 -208 -7 -168 24 -294 108 -438 42
-70 168 -199 231 -236 l48 -28 -45 -61 c-192 -263 -250 -587 -163 -910 11 -43
49 -135 83 -205 35 -70 62 -127 62 -127 -12 -3 -157 -127 -200 -170 -208 -210
-346 -508 -404 -877 -25 -156 -25 -560 0 -736 47 -332 149 -689 293 -1031 65
-152 228 -483 333 -673 55 -101 101 -189 101 -195 0 -6 -35 -13 -77 -17 -43
-4 -127 -16 -188 -27 -60 -10 -115 -19 -121 -19 -7 0 -13 27 -17 66 -4 50 -15
86 -46 149 -67 135 -168 230 -308 289 -68 28 -240 66 -303 66 l-41 0 7 -57
c24 -199 101 -353 221 -444 64 -48 175 -95 255 -107 l53 -9 -45 -12 c-25 -7
-115 -32 -200 -56 l-155 -44 -151 152 c-260 263 -447 517 -592 804 -166 329
-272 684 -328 1098 -22 160 -25 535 -5 705 48 428 177 853 359 1185 87 160
150 260 235 375 267 361 488 574 860 828 65 44 119 83 120 86 1 2 -14 26 -34
53 -43 57 -88 139 -113 206 -10 26 -20 47 -23 47 -10 0 -135 -80 -238 -153
-547 -386 -999 -938 -1253 -1533 -227 -532 -324 -1109 -281 -1678 46 -618 246
-1214 571 -1707 165 -250 338 -455 543 -642 456 -416 1090 -734 1757 -881 9
-2 -19 39 -62 90 -83 101 -128 177 -164 276 l-22 63 -164 60 c-191 70 -312
124 -460 203 -132 70 -180 100 -180 112 0 5 35 20 78 34 172 54 433 96 595 96
l92 0 74 -138 c109 -202 251 -436 320 -528 75 -101 187 -207 272 -257 178
-105 397 -109 579 -10 206 112 336 283 625 826 l57 107 479 0 c327 0 478 -3
474 -10 -9 -14 -190 -135 -299 -199 -182 -107 -428 -218 -601 -270 -38 -12
-75 -25 -81 -29 -5 -4 -20 -36 -33 -72 -29 -82 -92 -185 -169 -275 -33 -38
-59 -72 -57 -73 6 -6 284 65 403 102 369 117 789 329 1091 553 295 219 561
490 753 768 187 269 343 577 441 868 90 263 160 605 188 910 15 166 6 582 -15
742 -82 597 -304 1157 -643 1623 -288 396 -552 647 -976 931 -125 83 -157 98
-157 70 0 -22 -66 -145 -115 -214 l-54 -74 129 -86 c625 -413 1080 -994 1309
-1670 125 -370 178 -729 168 -1128 -13 -499 -130 -960 -354 -1399 -122 -239
-313 -515 -464 -670 l-75 -77 -335 5 c-656 9 -840 15 -830 28 17 21 183 331
271 506 248 497 376 877 447 1335 24 159 27 207 27 420 1 261 -8 349 -54 542
-84 354 -241 605 -523 838 l-49 40 39 65 c114 187 168 432 144 645 -26 228
-91 382 -242 571 -7 8 9 22 48 44 32 18 90 65 128 104 169 173 239 389 206
635 -14 106 -35 145 -80 149 -46 5 -65 -16 -123 -133 -28 -55 -52 -102 -54
-104 -2 -3 -20 14 -40 37 -26 30 -43 42 -63 42 -37 0 -51 -17 -51 -65 -1 -120
-58 -263 -157 -393 -110 -144 -214 -218 -499 -357 -155 -75 -202 -103 -252
-150 -69 -63 -136 -180 -113 -194 12 -8 72 0 138 18 39 11 40 9 11 -30 -17
-22 -23 -48 -26 -100 -4 -60 -1 -77 23 -125 77 -156 290 -188 403 -59 59 67
77 155 51 248 -14 51 -104 144 -147 153 -18 4 -32 9 -32 13 0 3 78 43 173 89
l172 83 62 -67 c72 -78 136 -194 158 -285 19 -84 19 -258 0 -334 -50 -193
-187 -357 -369 -445 -35 -16 -139 -48 -232 -70 -233 -55 -326 -101 -446 -219
l-87 -87 -83 81 c-127 124 -221 170 -473 230 -219 52 -323 108 -434 232 -59
65 -123 188 -146 278 -21 85 -19 235 5 329 26 104 87 218 159 296 l59 65 34
-19 c52 -29 155 -81 243 -121 l80 -37 -44 -13 c-54 -17 -117 -75 -143 -134
-43 -94 -16 -215 61 -283 49 -43 97 -61 166 -62 67 0 129 26 173 72 35 38 72
121 72 163 0 47 -25 117 -52 146 -26 28 -28 27 50 3 35 -11 77 -20 93 -20 25
0 29 4 29 29 0 42 -74 147 -145 204 -36 29 -129 82 -235 133 -96 47 -213 111
-259 142 -210 139 -364 361 -378 545 -3 40 -12 82 -19 95 -27 42 -93 19 -117
-41 l-13 -31 -33 53 c-18 30 -43 77 -56 106 -38 87 -83 116 -128 83z m813
-2478 c135 -17 252 -60 360 -133 163 -111 256 -234 325 -429 15 -43 30 -78 34
-78 3 0 23 44 43 98 129 337 418 542 763 542 197 0 331 -50 458 -170 158 -148
238 -315 287 -600 27 -159 37 -443 21 -595 -29 -267 -106 -552 -206 -760 -59
-122 -85 -153 -138 -162 -31 -5 -40 -1 -67 25 -38 38 -38 63 -1 145 66 146
147 438 178 637 24 156 24 466 -1 600 -33 185 -61 252 -171 405 -74 104 -173
134 -225 68 -29 -37 -25 -66 20 -141 81 -134 113 -289 114 -547 0 -164 -12
-275 -45 -389 -12 -43 -21 -39 -39 19 -16 51 -55 122 -89 158 -36 40 -80 62
-94 48 -8 -8 -10 -83 -8 -234 1 -122 -3 -274 -9 -337 -25 -248 -115 -629 -212
-895 -51 -140 -125 -314 -143 -339 -13 -18 -16 -18 -32 -4 -29 25 -59 38 -113
48 -104 20 -210 -31 -266 -126 l-27 -46 -18 35 c-28 53 -101 112 -164 132 -68
21 -130 14 -194 -21 -24 -13 -47 -22 -51 -19 -17 11 -124 266 -175 418 -52
156 -121 422 -145 557 -38 210 -42 265 -46 545 -3 273 -4 290 -21 293 -50 8
-139 -90 -167 -184 -10 -32 -20 -65 -22 -73 -13 -42 -43 72 -65 249 -19 159 3
436 47 575 9 28 34 82 55 122 59 109 51 160 -31 183 -130 37 -293 -218 -339
-530 -52 -348 16 -818 170 -1177 47 -111 48 -135 10 -174 -35 -35 -86 -39
-123 -9 -27 20 -101 164 -150 290 -35 91 -99 346 -125 495 -25 151 -25 518 0
689 68 457 301 745 642 795 85 12 100 12 195 1z m503 -3270 c7 0 25 -11 40
-25 l27 -26 0 -200 c0 -198 0 -200 -24 -224 -47 -47 -112 -43 -150 9 -20 26
-21 41 -21 221 0 190 0 194 24 219 23 25 54 36 79 30 8 -2 19 -4 25 -4z m503
-5 c59 -24 66 -55 58 -268 -7 -181 -7 -182 -35 -209 -48 -48 -120 -33 -154 32
-18 35 -22 368 -4 401 11 22 66 59 87 59 7 0 28 -7 48 -15z m-836 -10 c44 -23
52 -65 48 -257 -3 -189 -12 -215 -81 -232 -47 -12 -80 3 -107 46 -18 30 -20
51 -20 206 0 181 7 218 47 241 26 15 80 13 113 -4z m1221 -14 l29 -29 0 -192
0 -192 -34 -34 c-44 -44 -83 -45 -128 -5 l-33 29 -3 195 -3 194 26 32 c23 26
34 31 72 31 36 0 50 -6 74 -29z"/>
<path d="M4886 8379 c-204 -27 -506 -110 -506 -139 0 -13 125 -94 195 -126
l54 -25 88 30 c137 46 248 63 418 63 173 0 295 -18 431 -64 l91 -31 81 41 c45
22 102 55 128 73 44 30 46 33 28 46 -54 39 -351 114 -525 133 -113 12 -387 11
-483 -1z"/>
<path d="M5040 6982 c-47 -47 -64 -103 -54 -180 13 -113 119 -356 152 -350 22
4 71 86 111 189 61 155 52 281 -25 349 -30 26 -43 30 -91 30 -51 0 -58 -3 -93
-38z"/>
</g>
</svg>
